<svg id="Layer_1" data-name="Layer 1" xmlns="http://www.w3.org/2000/svg" viewBox="0 0 500 500"><defs><style>.cls-1{fill:#e0e0e0;}.cls-2{fill:#c4c4c4;}.cls-3{fill:#494949;}.cls-4{fill:#3a3a3a;}.cls-5{fill:none;stroke:#000;stroke-linecap:round;stroke-linejoin:round;stroke-width:15px;}.cls-6{fill:#f4cf16;}.cls-7{fill:#e5bb0c;}</style></defs><title>flash-drive</title><rect class="cls-1" x="185.75" y="8.07" width="128.5" height="103.42"/><rect class="cls-2" x="278.25" y="8.07" width="36" height="103.42"/><path class="cls-3" d="M158.33,111.49V463.15a28.78,28.78,0,0,0,28.78,28.78H312.89a28.78,28.78,0,0,0,28.78-28.78V111.49ZM286.17,451.93h-74a14,14,0,0,1,0-28h74a14,14,0,0,1,0,28Z"/><path class="cls-4" d="M305.67,111.49V463.15a28.78,28.78,0,0,1-28.78,28.78h36a28.78,28.78,0,0,0,28.78-28.78V111.49Z"/><rect class="cls-5" x="185.75" y="8.07" width="128.5" height="103.42"/><line class="cls-5" x1="218.17" y1="49.1" x2="231.8" y2="49.1"/><line class="cls-5" x1="268.04" y1="49.1" x2="281.67" y2="49.1"/><rect class="cls-6" x="158.7" y="111.93" width="182.97" height="54"/><rect class="cls-7" x="305.67" y="111.93" width="36" height="54"/><rect class="cls-5" x="158.7" y="111.93" width="182.97" height="54"/><path class="cls-5" d="M158.33,111.49V463.15a28.78,28.78,0,0,0,28.78,28.78H312.89a28.78,28.78,0,0,0,28.78-28.78V111.49ZM286.17,451.93h-74a14,14,0,0,1,0-28h74a14,14,0,0,1,0,28Z"/></svg>